<?xml version="1.0" standalone="no"?>
<!DOCTYPE svg PUBLIC "-//W3C//DTD SVG 20010904//EN"
 "http://www.w3.org/TR/2001/REC-SVG-20010904/DTD/svg10.dtd">
<svg version="1.0" xmlns="http://www.w3.org/2000/svg"
 width="547.000000pt" height="620.000000pt" viewBox="0 0 547.000000 620.000000"
 preserveAspectRatio="xMidYMid meet">

<g transform="translate(0.000000,620.000000) scale(0.100000,-0.100000)"
fill="#000000" stroke="none">
<path d="M4270 6183 c-24 -9 -61 -46 -71 -70 l-9 -23 -1415 0 c-1402 0 -1415
0 -1435 -20 -20 -20 -20 -33 -20 -2634 0 -2475 1 -2615 18 -2635 16 -20 28
-21 202 -23 l185 -3 6 -180 c3 -99 6 -181 7 -181 8 -6 365 -206 396 -222 37
-20 57 -20 84 1 9 7 12 79 12 298 l0 289 978 0 978 0 15 -32 c8 -18 29 -43 48
-55 30 -20 46 -23 145 -23 132 0 171 14 199 73 l19 37 232 0 c230 0 233 0 284
26 28 14 69 46 91 70 77 88 71 -143 71 2563 l0 2426 -24 50 c-27 59 -107 135
-162 155 -27 9 -110 15 -269 17 l-231 5 -13 30 c-25 55 -61 68 -191 67 -63 0
-122 -3 -130 -6z m228 -2751 l2 -2653 -102 3 -103 3 -3 2639 c-1 1982 1 2642
10 2653 8 10 34 13 102 11 l91 -3 3 -2653z m-308 368 l0 -680 -1380 0 -1380 0
0 680 0 680 1380 0 1380 0 0 -680z m990 0 l0 -680 -285 0 -285 0 0 680 0 680
285 0 285 0 0 -680z"/>
<path d="M3226 4220 c-68 -21 -106 -95 -86 -169 37 -137 269 -126 296 14 20
110 -89 191 -210 155z m100 -68 c38 -25 40 -103 4 -122 -28 -15 -71 -12 -92 7
-27 24 -24 87 4 107 24 17 65 21 84 8z"/>
<path d="M2820 4090 l0 -130 100 0 c100 0 100 0 137 34 34 31 37 38 37 87 0
102 -50 139 -188 139 l-86 0 0 -130z m177 54 c22 -22 25 -32 20 -67 -7 -49
-28 -67 -79 -67 l-38 0 0 80 0 80 35 0 c25 0 44 -8 62 -26z"/>
<path d="M3450 4190 c0 -29 1 -30 50 -30 l50 0 0 -106 0 -105 38 3 37 3 3 103
3 102 43 0 c41 0 44 2 48 30 l5 30 -139 0 -138 0 0 -30z"/>
<path d="M2872 3883 c-43 -21 -62 -59 -62 -124 0 -44 4 -55 33 -84 40 -40 88
-51 166 -39 l56 9 3 68 3 67 -51 0 c-47 0 -50 -2 -50 -25 0 -16 6 -25 15 -25
8 0 15 -9 15 -20 0 -16 -7 -20 -31 -20 -42 0 -64 14 -79 49 -15 37 2 79 40 99
25 13 88 11 123 -3 14 -6 17 -2 17 23 0 25 -5 30 -31 36 -56 11 -133 6 -167
-11z"/>
<path d="M3142 3768 l3 -133 38 -3 37 -3 0 56 c0 53 1 56 23 53 15 -2 31 -20
50 -55 27 -50 30 -53 68 -53 l39 0 -15 38 c-9 20 -24 49 -34 63 -19 25 -19 26
0 37 30 19 26 85 -7 111 -23 18 -41 21 -116 21 l-89 0 3 -132z m146 53 c4 -26
-12 -41 -45 -41 -20 0 -23 5 -23 36 0 34 1 35 33 32 25 -2 33 -8 35 -27z"/>
<path d="M3440 3765 l0 -135 40 0 40 0 0 135 0 135 -40 0 -40 0 0 -135z"/>
<path d="M3590 3764 l0 -137 98 5 c136 7 178 39 176 135 -2 90 -63 133 -191
133 l-83 0 0 -136z m155 80 c26 -10 48 -62 40 -100 -7 -39 -29 -54 -79 -54
l-36 0 0 80 0 80 29 0 c16 0 37 -3 46 -6z"/>
<path d="M2820 3445 l0 -135 90 0 c102 0 144 15 154 54 8 33 -8 73 -33 81 -21
6 -21 6 1 35 18 25 20 33 10 55 -16 35 -49 45 -143 45 l-79 0 0 -135z m138 86
c8 -4 12 -19 10 -32 -2 -19 -10 -25 -35 -27 -32 -3 -33 -2 -33 32 0 31 3 36
23 36 12 0 28 -4 35 -9z m24 -124 c20 -31 -7 -57 -56 -57 -24 0 -26 4 -26 41
l0 41 37 -7 c21 -4 41 -12 45 -18z"/>
<path d="M3184 3570 c-68 -27 -99 -134 -58 -198 38 -59 141 -81 214 -44 39 19
70 71 70 117 0 46 -31 98 -70 117 -37 19 -120 23 -156 8z m129 -82 c24 -29 21
-65 -9 -95 -20 -20 -31 -24 -57 -19 -18 3 -38 14 -44 23 -14 18 -17 72 -5 89
25 38 84 39 115 2z"/>
<path d="M3530 3573 c-30 -11 -71 -58 -80 -93 -25 -91 43 -170 145 -170 96 0
149 49 149 136 0 62 -22 100 -69 120 -34 14 -115 18 -145 7z m123 -85 c24 -29
21 -65 -9 -95 -20 -20 -31 -24 -57 -19 -18 3 -38 14 -44 23 -14 18 -17 72 -5
89 25 38 84 39 115 2z"/>
<path d="M3800 3445 l0 -135 40 0 39 0 3 62 3 62 50 -62 c49 -60 51 -62 98
-62 l48 0 -56 69 c-30 37 -55 71 -55 75 0 4 21 33 46 64 l47 57 -39 3 c-41 4
-39 6 -111 -83 l-33 -40 0 63 0 62 -40 0 -40 0 0 -135z"/>
<path d="M205 5740 c-68 -34 -75 -55 -75 -237 0 -147 -2 -161 -20 -178 -18
-16 -20 -31 -20 -146 0 -120 -1 -128 -21 -134 -11 -4 -24 -18 -30 -32 -5 -14
-9 -418 -9 -1013 l0 -988 30 -64 c53 -113 49 -239 -9 -340 -52 -89 -49 -862 5
-1127 8 -42 42 -156 75 -254 37 -112 59 -194 59 -223 0 -35 5 -50 25 -68 21
-20 25 -32 25 -82 0 -70 17 -108 49 -112 43 -7 61 23 61 103 0 67 2 73 25 83
21 10 25 19 25 51 0 23 28 125 64 233 36 106 72 227 80 268 35 175 52 601 37
882 -12 202 -13 208 -44 270 -28 56 -32 73 -32 148 0 71 5 96 28 150 l28 65
-1 400 0 400 31 -37 c23 -28 39 -38 59 -38 61 0 60 -9 60 568 0 522 -2 553
-34 574 -6 4 -35 8 -63 8 l-53 0 0 74 c0 72 -13 106 -41 106 -5 0 -9 54 -9
124 0 106 -3 127 -19 148 -17 21 -20 45 -23 185 -3 145 -5 165 -24 190 -46 63
-158 83 -239 43z m153 -247 l3 -153 -66 0 -65 0 0 148 c0 82 3 152 7 156 4 4
32 6 63 4 l55 -3 3 -152z m242 -798 l0 -65 -150 0 -150 0 0 65 0 65 150 0 150
0 0 -65z m0 -472 c0 -298 0 -298 -20 -273 -18 23 -20 42 -20 298 0 265 0 272
20 272 20 0 20 -7 20 -297z m-370 -1741 c0 -16 -3 -63 -6 -105 -7 -76 -7 -77
-35 -77 l-29 0 0 74 c0 114 7 136 41 136 25 0 29 -4 29 -28z m-12 -369 l3 -83
-36 0 -35 0 0 78 c0 43 3 82 7 86 4 4 19 6 33 4 24 -3 25 -6 28 -85z m6 -254
c3 -34 6 -79 6 -100 0 -36 -2 -39 -29 -39 -27 0 -29 3 -35 53 -3 28 -6 73 -6
100 0 45 1 47 29 47 27 0 28 -2 35 -61z m236 -243 c0 -37 -44 -208 -86 -339
-50 -150 -58 -168 -76 -165 -16 2 -29 26 -60 113 -44 124 -82 264 -93 343 l-7
52 161 0 c89 0 161 -2 161 -4z"/>
</g>
</svg>
