<?xml version="1.0" standalone="no"?>
<!DOCTYPE svg PUBLIC "-//W3C//DTD SVG 20010904//EN"
 "http://www.w3.org/TR/2001/REC-SVG-20010904/DTD/svg10.dtd">
<svg version="1.0" xmlns="http://www.w3.org/2000/svg"
 width="336.000000pt" height="700.000000pt" viewBox="0 0 336.000000 700.000000"
 preserveAspectRatio="xMidYMid meet">

<g transform="translate(0.000000,700.000000) scale(0.100000,-0.100000)"
fill="#000000" stroke="none">
<path d="M1945 6864 c-176 -68 -322 -123 -325 -124 -3 0 -13 27 -24 60 l-18
59 -72 -38 c-39 -21 -174 -93 -301 -158 l-230 -120 -192 -48 c-106 -26 -199
-52 -208 -59 -34 -25 -33 -65 5 -266 21 -107 47 -249 60 -316 l22 -121 43 10
c61 14 127 1 183 -36 l47 -33 -36 241 c-21 132 -34 243 -31 247 4 3 51 18 104
32 73 20 125 27 210 29 98 2 120 6 169 28 l55 26 48 -24 c65 -33 187 -63 255
-63 119 1 254 44 351 114 l47 34 50 -181 c44 -161 52 -182 71 -185 12 -2 22
-1 22 1 0 2 -18 100 -40 217 l-40 213 35 53 c20 29 48 84 63 121 24 62 26 80
26 203 0 94 -4 146 -15 171 l-14 36 -320 -123z"/>
<path d="M1681 6031 c-22 -39 4 -49 169 -64 153 -15 190 -11 190 16 -1 34 -20
40 -162 53 -185 17 -186 17 -197 -5z"/>
<path d="M1298 5939 c-81 -40 -150 -79 -152 -86 -7 -18 3 -40 20 -47 16 -6
283 123 302 147 10 11 9 19 -5 36 l-18 22 -147 -72z"/>
<path d="M1794 5907 c-31 -27 -41 -102 -14 -102 8 0 16 11 18 25 9 66 90 83
113 24 11 -31 39 -32 39 -1 -1 67 -100 102 -156 54z"/>
<path d="M1319 5780 c-24 -23 -30 -37 -27 -62 4 -40 31 -45 36 -8 5 33 30 60
56 60 27 0 40 -9 55 -37 6 -13 18 -23 26 -23 18 0 19 39 2 61 -37 48 -105 52
-148 9z"/>
<path d="M1662 4553 c-23 -5 -23 -5 -20 -137 3 -150 -4 -175 -57 -201 -35 -16
-240 -22 -261 -7 -5 4 -16 32 -22 62 -24 105 -95 189 -201 238 -49 23 -73 27
-182 30 -81 3 -140 0 -162 -7 -46 -16 -95 -66 -103 -107 l-6 -32 -91 -4 c-72
-3 -104 -10 -147 -30 -113 -52 -209 -168 -255 -308 -30 -93 -145 -795 -145
-888 0 -130 48 -252 131 -333 72 -70 111 -79 339 -79 l187 0 66 -80 67 -79 0
-80 c0 -44 5 -92 11 -108 20 -53 92 -113 137 -113 15 0 10 9 -23 43 -51 53
-74 101 -82 169 l-6 52 65 -52 c78 -61 122 -82 178 -82 99 0 188 76 214 182
10 42 -12 119 -45 161 -20 24 -25 37 -16 37 24 0 95 -58 124 -101 21 -32 46
-50 114 -84 47 -24 89 -51 93 -60 13 -34 6 -72 -17 -93 -28 -26 -54 -28 -102
-5 -29 14 -38 15 -44 4 -4 -7 -21 -74 -36 -149 -24 -115 -33 -141 -56 -164
-29 -29 -66 -36 -100 -18 -27 15 -51 65 -43 95 6 24 4 25 -42 25 -27 1 -67 7
-89 15 -22 8 -41 15 -42 15 -2 0 -3 -398 -3 -885 l0 -885 438 2 437 3 3 886 2
887 24 6 c37 9 87 56 107 101 16 34 19 67 19 233 0 187 1 192 20 192 33 0 75
26 112 69 l33 39 75 -26 c66 -23 91 -26 210 -26 152 -1 218 13 336 69 193 93
338 270 396 484 17 63 22 115 26 300 l4 225 -23 -17 c-106 -78 -244 -84 -340
-16 l-27 19 -4 -208 c-4 -198 -5 -209 -30 -262 -36 -78 -86 -131 -159 -170
-119 -63 -270 -52 -374 28 -96 73 -92 55 -87 413 5 350 -3 429 -55 535 -33 69
-115 161 -181 202 -80 51 -222 88 -290 75z"/>
<path d="M1680 415 c-30 -9 -65 -23 -78 -31 -18 -12 -39 -14 -80 -11 -121 12
-277 4 -410 -18 -18 -3 -58 -27 -91 -55 -63 -52 -103 -121 -114 -193 -3 -20
-13 -44 -21 -52 -8 -9 -13 -22 -10 -30 5 -13 114 -15 829 -15 857 0 853 0 820
40 -6 8 -19 46 -28 84 -38 156 -138 254 -291 286 -63 13 -113 9 -188 -16 -34
-11 -48 -21 -48 -34 0 -23 -19 -30 -84 -30 -60 0 -102 22 -76 40 8 5 33 13 54
17 35 5 37 7 18 14 -46 17 -147 19 -202 4z m556 -36 c14 -12 14 -14 -2 -26
-20 -15 -122 -17 -143 -4 -19 12 -7 38 21 44 37 8 107 0 124 -14z"/>
</g>
</svg>
