<svg id="visual" viewBox="0 0 960 590" width="960" height="590" xmlns="http://www.w3.org/2000/svg" xmlns:xlink="http://www.w3.org/1999/xlink" version="1.1"><path d="M0 426L22.8 417C45.7 408 91.3 390 137 385.3C182.7 380.7 228.3 389.3 274 398.2C319.7 407 365.3 416 411.2 416.8C457 417.7 503 410.3 548.8 418.3C594.7 426.3 640.3 449.7 686 463.7C731.7 477.7 777.3 482.3 823 468.5C868.7 454.7 914.3 422.3 937.2 406.2L960 390L960 591L937.2 591C914.3 591 868.7 591 823 591C777.3 591 731.7 591 686 591C640.3 591 594.7 591 548.8 591C503 591 457 591 411.2 591C365.3 591 319.7 591 274 591C228.3 591 182.7 591 137 591C91.3 591 45.7 591 22.8 591L0 591Z" fill="#b3a6dd"></path><path d="M0 454L22.8 462.2C45.7 470.3 91.3 486.7 137 494C182.7 501.3 228.3 499.7 274 486.8C319.7 474 365.3 450 411.2 452C457 454 503 482 548.8 496.2C594.7 510.3 640.3 510.7 686 502.3C731.7 494 777.3 477 823 481.2C868.7 485.3 914.3 510.7 937.2 523.3L960 536L960 591L937.2 591C914.3 591 868.7 591 823 591C777.3 591 731.7 591 686 591C640.3 591 594.7 591 548.8 591C503 591 457 591 411.2 591C365.3 591 319.7 591 274 591C228.3 591 182.7 591 137 591C91.3 591 45.7 591 22.8 591L0 591Z" fill="#001220"></path></svg>