<svg id="visual" viewBox="0 0 960 190" width="960" height="190" xmlns="http://www.w3.org/2000/svg" xmlns:xlink="http://www.w3.org/1999/xlink" version="1.1"><rect x="0" y="0" width="960" height="190" fill="#C62368"></rect><path d="M0 111L22.8 97.3C45.7 83.7 91.3 56.3 137 42.3C182.7 28.3 228.3 27.7 274 38.5C319.7 49.3 365.3 71.7 411.2 84C457 96.3 503 98.7 548.8 98.7C594.7 98.7 640.3 96.3 686 84.2C731.7 72 777.3 50 823 52.2C868.7 54.3 914.3 80.7 937.2 93.8L960 107L960 0L937.2 0C914.3 0 868.7 0 823 0C777.3 0 731.7 0 686 0C640.3 0 594.7 0 548.8 0C503 0 457 0 411.2 0C365.3 0 319.7 0 274 0C228.3 0 182.7 0 137 0C91.3 0 45.7 0 22.8 0L0 0Z" fill="#001220" stroke-linecap="round" stroke-linejoin="miter"></path></svg>