<svg id="visual" viewBox="0 0 960 360" width="960" height="360" xmlns="http://www.w3.org/2000/svg" xmlns:xlink="http://www.w3.org/1999/xlink" version="1.1"><rect x="0" y="0" width="960" height="360" fill="#001220"></rect><path d="M0 143L22.8 137.7C45.7 132.3 91.3 121.7 137 113.8C182.7 106 228.3 101 274 101.7C319.7 102.3 365.3 108.7 411.2 117.2C457 125.7 503 136.3 548.8 141.5C594.7 146.7 640.3 146.3 686 137.3C731.7 128.3 777.3 110.7 823 107.7C868.7 104.7 914.3 116.3 937.2 122.2L960 128L960 0L937.2 0C914.3 0 868.7 0 823 0C777.3 0 731.7 0 686 0C640.3 0 594.7 0 548.8 0C503 0 457 0 411.2 0C365.3 0 319.7 0 274 0C228.3 0 182.7 0 137 0C91.3 0 45.7 0 22.8 0L0 0Z" fill="#fa7268"></path><path d="M0 116L22.8 111.8C45.7 107.7 91.3 99.3 137 95.8C182.7 92.3 228.3 93.7 274 97.7C319.7 101.7 365.3 108.3 411.2 111.2C457 114 503 113 548.8 111.3C594.7 109.7 640.3 107.3 686 107C731.7 106.7 777.3 108.3 823 104.3C868.7 100.3 914.3 90.7 937.2 85.8L960 81L960 0L937.2 0C914.3 0 868.7 0 823 0C777.3 0 731.7 0 686 0C640.3 0 594.7 0 548.8 0C503 0 457 0 411.2 0C365.3 0 319.7 0 274 0C228.3 0 182.7 0 137 0C91.3 0 45.7 0 22.8 0L0 0Z" fill="#ef5f67"></path><path d="M0 82L22.8 78.2C45.7 74.3 91.3 66.7 137 64.2C182.7 61.7 228.3 64.3 274 65.5C319.7 66.7 365.3 66.3 411.2 71.2C457 76 503 86 548.8 86C594.7 86 640.3 76 686 74.2C731.7 72.3 777.3 78.7 823 83.2C868.7 87.7 914.3 90.3 937.2 91.7L960 93L960 0L937.2 0C914.3 0 868.7 0 823 0C777.3 0 731.7 0 686 0C640.3 0 594.7 0 548.8 0C503 0 457 0 411.2 0C365.3 0 319.7 0 274 0C228.3 0 182.7 0 137 0C91.3 0 45.7 0 22.8 0L0 0Z" fill="#e34c67"></path><path d="M0 36L22.8 37.3C45.7 38.7 91.3 41.3 137 41.3C182.7 41.3 228.3 38.7 274 40C319.7 41.3 365.3 46.7 411.2 47.3C457 48 503 44 548.8 43.2C594.7 42.3 640.3 44.7 686 47.8C731.7 51 777.3 55 823 57.5C868.7 60 914.3 61 937.2 61.5L960 62L960 0L937.2 0C914.3 0 868.7 0 823 0C777.3 0 731.7 0 686 0C640.3 0 594.7 0 548.8 0C503 0 457 0 411.2 0C365.3 0 319.7 0 274 0C228.3 0 182.7 0 137 0C91.3 0 45.7 0 22.8 0L0 0Z" fill="#d53867"></path><path d="M0 30L22.8 32C45.7 34 91.3 38 137 39C182.7 40 228.3 38 274 35.3C319.7 32.7 365.3 29.3 411.2 26.8C457 24.3 503 22.7 548.8 22.2C594.7 21.7 640.3 22.3 686 23.8C731.7 25.3 777.3 27.7 823 26.5C868.7 25.3 914.3 20.7 937.2 18.3L960 16L960 0L937.2 0C914.3 0 868.7 0 823 0C777.3 0 731.7 0 686 0C640.3 0 594.7 0 548.8 0C503 0 457 0 411.2 0C365.3 0 319.7 0 274 0C228.3 0 182.7 0 137 0C91.3 0 45.7 0 22.8 0L0 0Z" fill="#c62368"></path></svg>